 <svg  version="1.0" xmlns="http://www.w3.org/2000/svg"  width="300.000000pt" height="300.000000pt" viewBox="0 0 300.000000 300.000000"  preserveAspectRatio="xMidYMid meet">  <g transform="translate(0.000000,300.000000) scale(0.100000,-0.100000)" fill="#874790" stroke="none"> <path d="M384 1840 c-11 -4 -33 -22 -47 -40 -36 -42 -38 -121 -4 -170 38 -57 78 -74 187 -78 65 -2 90 0 80 7 -22 15 -27 144 -6 175 l16 25 -50 -1 c-47 -1 -48 -2 -34 -22 16 -23 19 -123 5 -146 -13 -20 -78 -16 -110 7 -36 27 -61 80 -61 131 0 94 106 138 172 71 28 -28 30 -28 24 -7 -3 13 -6 31 -6 41 0 15 -10 17 -72 16 -40 0 -82 -4 -94 -9z"/> <path d="M996 1833 c6 -24 -82 -255 -103 -270 -14 -11 -10 -13 30 -13 44 0 46 1 35 19 -9 15 -9 28 1 59 22 64 24 66 65 52 60 -19 96 -86 64 -118 -9 -9 12 -12 96 -12 l107 0 -15 22 c-9 13 -16 43 -16 70 0 43 3 50 26 58 33 13 42 6 79 -61 23 -42 26 -55 16 -71 -10 -17 -7 -18 39 -18 l51 0 -21 22 c-11 12 -20 27 -20 33 0 6 -15 36 -34 67 l-33 56 28 21 c35 26 40 74 10 91 -11 5 -66 10 -122 10 -89 0 -100 -2 -84 -13 16 -12 18 -28 17 -136 -1 -67 -4 -126 -8 -132 -3 -5 -13 -9 -22 -7 -23 4 -114 257 -99 276 7 9 -2 12 -41 12 -43 0 -49 -3 -46 -17z m358 -9 c21 -8 20 -47 -1 -66 -18 -16 -77 -48 -88 -48 -3 0 -5 22 -5 50 0 36 5 52 18 59 19 12 53 14 76 5z m-298 -85 c12 -32 20 -59 19 -59 -1 0 -19 7 -39 15 -20 8 -36 12 -36 8 0 -3 -3 -4 -6 -1 -3 4 3 29 12 57 10 27 21 48 23 45 3 -3 15 -32 27 -65z"/> <path d="M1495 1826 c-50 -50 -29 -86 74 -124 81 -30 97 -46 87 -85 -5 -20 -16 -29 -47 -37 -53 -15 -106 10 -131 60 -21 41 -23 29 -6 -34 10 -40 15 -45 47 -50 100 -16 151 -1 176 51 32 67 3 109 -99 143 -37 12 -70 28 -73 36 -9 23 17 44 55 44 27 0 42 -8 70 -37 23 -25 33 -31 29 -18 -3 11 -9 31 -12 45 -6 23 -11 25 -75 28 -63 3 -72 1 -95 -22z"/> <path d="M1744 1834 c24 -23 23 -240 -1 -266 -15 -17 -12 -18 98 -18 l114 0 18 51 c22 60 19 69 -8 29 -11 -16 -32 -35 -47 -41 -25 -10 -95 -15 -103 -7 -2 2 -5 39 -6 83 l-2 80 34 -3 c21 -2 42 -12 55 -28 l21 -25 -11 50 c-5 28 -13 46 -16 41 -4 -6 -23 -13 -43 -17 -36 -5 -37 -5 -37 25 0 17 5 34 10 37 23 14 91 -7 122 -38 23 -23 30 -27 24 -12 -4 11 -10 32 -13 48 l-5 27 -110 0 c-99 0 -108 -1 -94 -16z"/> <path d="M2014 1828 c12 -17 16 -49 16 -128 0 -79 -4 -111 -16 -128 -15 -22 -15 -22 32 -22 42 0 46 2 30 13 -15 11 -19 33 -22 130 -3 64 -1 117 4 117 5 0 19 -11 32 -25 14 -14 48 -44 77 -67 52 -40 53 -41 53 -94 0 -40 -4 -56 -17 -63 -14 -8 -7 -10 32 -10 39 0 46 2 33 10 -16 9 -18 27 -18 139 0 112 2 130 18 139 13 8 6 10 -33 10 -39 0 -46 -2 -32 -10 12 -7 17 -23 17 -55 l0 -45 -55 43 c-30 23 -55 48 -55 55 0 9 -17 13 -56 13 -55 0 -55 0 -40 -22z"/> <path d="M2313 1839 c15 -9 17 -26 17 -131 0 -99 -3 -125 -17 -140 -15 -17 -12 -18 98 -18 l114 0 21 55 c24 61 19 71 -11 25 -21 -31 -52 -48 -95 -51 -61 -5 -60 -6 -60 84 l0 84 33 -5 c18 -2 42 -15 56 -30 18 -22 22 -23 16 -7 -4 11 -9 34 -12 52 -5 28 -7 30 -20 17 -8 -7 -28 -14 -44 -14 -25 0 -29 4 -29 29 0 17 5 33 10 36 23 14 91 -7 122 -38 23 -23 30 -27 24 -12 -4 11 -10 32 -13 48 l-5 27 -112 0 c-80 -1 -106 -3 -93 -11z"/> <path d="M664 1595 c-9 -23 3 -45 25 -45 20 0 37 32 26 50 -9 15 -45 12 -51 -5z"/> </g> </svg> 